 <svg
        width="407.55"
        height="83.60507664979605"
        viewBox="0 0 369.5454545454545 75.80879905007102"
        className="looka-1j8o68f"
      >
        <defs id="SvgjsDefs1261">
          <linearGradient id="SvgjsLinearGradient1268">
            <stop id="SvgjsStop1269" stop-color="#006838" offset="0"></stop>
            <stop id="SvgjsStop1270" stop-color="#96cf24" offset="1"></stop>
          </linearGradient>
        </defs>
        <g
          id="SvgjsG1262"
          transform="matrix(1.0606060606060606,0,0,1.0606060606060606,-5.303030303030303,-15.7989738926743)"
          fill="#04a118"
        >
          <path
            xmlns="http://www.w3.org/2000/svg"
            fill-rule="evenodd"
            clip-rule="evenodd"
            d="M92.5285187,14.8961754L72.3354797,31.022337  c0,0-8.8635406,6.5809231-10.1633186,18.2006702l13.6613731-10.8255768  C83.5177078,32.3083496,89.3086014,24.1565723,92.5285187,14.8961754z"
          ></path>
          <path
            xmlns="http://www.w3.org/2000/svg"
            fill-rule="evenodd"
            clip-rule="evenodd"
            d="M24.1664658,38.3974304l13.6613731,10.8255768  C36.5280609,37.60326,27.6645184,31.022337,27.6645184,31.022337L7.4714789,14.8961754  C10.6913815,24.1565723,16.4822922,32.3083496,24.1664658,38.3974304z"
          ></path>
          <path
            xmlns="http://www.w3.org/2000/svg"
            fill-rule="evenodd"
            clip-rule="evenodd"
            d="M50,75.8168182c-3.1293068-3.0203857-5.9778557-4.3379974-5.9778557-4.3379974  L21.8298531,60.308197c4.8643284,8.074852,11.9238243,14.6005554,20.3554039,18.8163757l3.660759,1.8303909  c-0.9784088,1.5820541-1.8557549,3.3817673-2.5282135,5.4180756L50,83.0319214l6.6821976,3.3411179  c-0.6724586-2.0363083-1.5498047-3.8360214-2.5282135-5.4180756l3.660759-1.8303909  c8.4316025-4.2158203,15.4910736-10.7415237,20.355423-18.8163757L55.9778557,71.4788208  C55.9778557,71.4788208,53.1293068,72.7964325,50,75.8168182z"
          ></path>
          <path
            xmlns="http://www.w3.org/2000/svg"
            fill-rule="evenodd"
            clip-rule="evenodd"
            d="M67.685173,49.3397369c0,0-11.2916908,6.6234131-14.500473,20.8909988  L71.0340347,59.005619C81.4154358,52.476963,89.7270813,43.1317787,95,32.0595551L67.685173,49.3397369z"
          ></path>
          <path
            xmlns="http://www.w3.org/2000/svg"
            fill-rule="evenodd"
            clip-rule="evenodd"
            d="M46.8153,70.2307358  C43.6065178,55.96315,32.3148117,49.3397369,32.3148117,49.3397369L5,32.0595551  c5.2728977,11.0722237,13.5845642,20.417408,23.9659481,26.946064L46.8153,70.2307358z"
          ></path>
        </g>
        <g
          id="SvgjsG1263"
          transform="matrix(0.9606043076199019,0,0,0.9606043076199019,114.24909456764247,3.061955948941053)"
          fill="url(#SvgjsLinearGradient1268)"
        >
          <path d="M20.02 11.777000000000001 l0 5.1563 l-6.6992 0 l0 23.066 l-5.8008 0 l0 -23.066 l-6.7383 0 l0 -5.1563 l19.238 0 z M44.3016953125 40 l-2.0508 -5.8203 l-11.855 0 l-2.0508 5.8203 l-5.9961 0 l10.391 -28.223 l7.168 0 l10.391 28.223 l-5.9961 0 z M32.114695312500004 29.277 l8.418 0 l-4.1992 -11.973 z M61.357403125 34.8242 l8.8477 0 l0 5.1758 l-14.707 0 l0 -28.223 l5.8594 0 l0 23.047 z M92.0073046875 16.934 l-10.469 0 l0 6.4063 l9.2773 0 l0 5.0977 l-9.2773 0 l0 6.3867 l10.469 0 l0 5.1758 l-16.367 0 l0 -28.223 l16.367 0 l0 5.1563 z M118.2815625 11.777000000000001 l5.8398 0 l0 28.223 l-6.7773 0 l-12.5 -20.176 l0 20.176 l-5.8398 0 l0 -28.223 l6.6992 0 l12.578 20.059 l0 -20.059 z M148.7553515625 11.777000000000001 l0 5.1563 l-6.6992 0 l0 23.066 l-5.8008 0 l0 -23.066 l-6.7383 0 l0 -5.1563 l19.238 0 z M163.525046875 40.39063 c-6.0547 0 -10.781 -2.9102 -11.641 -8.2031 l6.0547 -1.3867 c0.39063 3.1641 2.7148 4.8047 5.8203 4.8047 c2.3828 0 4.2773 -1.0547 4.2578 -3.4375 c-0.019531 -2.6563 -3.1445 -3.4961 -6.582 -4.5508 c-4.1406 -1.2891 -8.5742 -2.8125 -8.5742 -8.0078 c0 -5.2539 4.2969 -8.2227 9.9609 -8.2227 c4.9609 0 9.9609 2.0117 11.094 7.4219 l-5.6641 1.4063 c-0.52734 -2.8125 -2.4219 -4.043 -5.0781 -4.043 c-2.3633 0 -4.375 0.97656 -4.375 3.3008 c0 2.168 2.7734 2.8906 5.9766 3.8477 c4.2578 1.2891 9.2969 2.9297 9.2969 8.5547 c0 5.9961 -5.0195 8.5156 -10.547 8.5156 z M201.6159921875 11.777000000000001 l-9.2773 14.707 l0 13.516 l-5.8789 0 l0 -13.379 l-9.3359 -14.844 l6.4844 0 l5.7617 9.6094 l5.7813 -9.6094 l6.4648 0 z M225.820625 11.777000000000001 l5.8398 0 l0 28.223 l-6.7773 0 l-12.5 -20.176 l0 20.176 l-5.8398 0 l0 -28.223 l6.6992 0 l12.578 20.059 l0 -20.059 z M252.4264140625 40.39063 c-8.3008 0 -14.434 -5.6445 -14.434 -14.512 s6.1328 -14.492 14.434 -14.492 c6.2891 0 11.328 3.2227 13.34 8.5742 l-5.4688 1.9922 c-1.25 -3.2813 -4.2383 -5.1758 -7.8711 -5.1758 c-4.8633 0 -8.5938 3.3984 -8.5938 9.1016 s3.7305 9.1211 8.5938 9.1211 c3.6328 0 6.6211 -1.9141 7.8711 -5.1953 l5.4688 1.9922 c-2.0117 5.3516 -7.0508 8.5938 -13.34 8.5938 z"></path>
        </g>
        <g
          id="SvgjsG1264"
          transform="matrix(0.7071508633313734,0,0,0.7071508633313734,192.70867864248547,47.9739700594896)"
          fill="#59a52c"
        >
          <path d="M9.2773 20 l-3.6719 -6.2109 l-0.84961 0 l0 6.2109 l-2.9297 0 l0 -14.111 l5.1172 0 c3.1934 0 4.541 1.8848 4.541 4.2188 c0 1.8945 -1.0742 3.125 -2.9883 3.5352 l4.248 6.3574 l-3.4668 0 z M4.7559 8.32 l0 3.3691 l1.7285 0 c1.5625 0 2.1973 -0.66406 2.1973 -1.6797 c0 -1.0059 -0.63477 -1.6895 -2.1973 -1.6895 l-1.7285 0 z M23.076406249999998 8.467 l-5.2344 0 l0 3.2031 l4.6387 0 l0 2.5488 l-4.6387 0 l0 3.1934 l5.2344 0 l0 2.5879 l-8.1836 0 l0 -14.111 l8.1836 0 l0 2.5781 z M32.343778125 20.19531 c-4.1504 0 -7.2168 -2.8223 -7.2168 -7.2559 s3.0664 -7.2461 7.2168 -7.2461 c3.1445 0 5.6641 1.6113 6.6699 4.2871 l-2.7344 0.99609 c-0.625 -1.6406 -2.1191 -2.5879 -3.9355 -2.5879 c-2.4316 0 -4.2969 1.6992 -4.2969 4.5508 s1.8652 4.5605 4.2969 4.5605 c1.8164 0 3.3105 -0.95703 3.9355 -2.5977 l2.7344 0.99609 c-1.0059 2.6758 -3.5254 4.2969 -6.6699 4.2969 z M48.86714375 20 l-3.6719 -6.2109 l-0.84961 0 l0 6.2109 l-2.9297 0 l0 -14.111 l5.1172 0 c3.1934 0 4.541 1.8848 4.541 4.2188 c0 1.8945 -1.0742 3.125 -2.9883 3.5352 l4.248 6.3574 l-3.4668 0 z M44.34574375 8.32 l0 3.3691 l1.7285 0 c1.5625 0 2.1973 -0.66406 2.1973 -1.6797 c0 -1.0059 -0.63477 -1.6895 -2.1973 -1.6895 l-1.7285 0 z M59.70705 20.19531 c-3.0957 0 -5.5176 -1.582 -5.5176 -5.1367 l0 -9.1699 l2.9297 0 l0 8.7695 c0 2.1484 1.1426 2.9492 2.5879 2.9492 c1.4551 0 2.6074 -0.81055 2.6074 -2.9492 l0 -8.7695 l2.9297 0 l0 9.1699 c0 3.5547 -2.4316 5.1367 -5.5371 5.1367 z M68.60354375 20 l0 -14.111 l2.9297 0 l0 14.111 l-2.9297 0 z M83.359609375 5.888999999999999 l0 2.5781 l-3.3496 0 l0 11.533 l-2.9004 0 l0 -11.533 l-3.3691 0 l0 -2.5781 l9.6191 0 z M101.748 20 l-2.9199 0 l-0.92773 -10.635 l-3.5742 10.635 l-1.8945 0 l-3.5742 -10.635 l-0.9375 10.635 l-2.9297 0 l1.1816 -14.111 l4.1797 0 l3.0078 8.8574 l3.0469 -8.8574 l4.1797 0 z M112.99828125 8.467 l-5.2344 0 l0 3.2031 l4.6387 0 l0 2.5488 l-4.6387 0 l0 3.1934 l5.2344 0 l0 2.5879 l-8.1836 0 l0 -14.111 l8.1836 0 l0 2.5781 z M125.654453125 5.888999999999999 l2.9199 0 l0 14.111 l-3.3887 0 l-6.25 -10.088 l0 10.088 l-2.9199 0 l0 -14.111 l3.3496 0 l6.2891 10.029 l0 -10.029 z M140.410390625 5.888999999999999 l0 2.5781 l-3.3496 0 l0 11.533 l-2.9004 0 l0 -11.533 l-3.3691 0 l0 -2.5781 l9.6191 0 z"></path>
        </g>
      </svg>